name Run_500 02_newCOP3_v24.mot
datacolumns 19
datarows 119
range 4.103 4.221
DataType=double
version=3
OpenSimVersion=4.3-2021-08-27-4bc7ad9
endheader
time	R_ground_force_vx	R_ground_force_vy	R_ground_force_vz	R_ground_force_px	R_ground_force_py	R_ground_force_pz	L_ground_force_vx	L_ground_force_vy	L_ground_force_vz	L_ground_force_px	L_ground_force_py	L_ground_force_pz	R_ground_torque_x	R_ground_torque_y	R_ground_torque_z	L_ground_torque_x	L_ground_torque_y	L_ground_torque_z
4.103	0	0	0	0	0	0	0	0	0	0	0	0	0	0	0	0	0	0
4.104	0	0	0	0	0	0	0	0	0	0	0	0	0	0	0	0	0	0
4.105	0	0	0	0	0	0	0	0	0	0	0	0	0	0	0	0	0	0
4.106	0	0	0	0	0	0	0	0	0	0	0	0	0	0	0	0	0	0
4.107	0	0	0	0	0	0	0	0	0	0	0	0	0	0	0	0	0	0
4.108	0	0	0	0	0	0	0	0	0	0	0	0	0	0	0	0	0	0
4.109	0	0	0	0	0	0	0	0	0	0	0	0	0	0	0	0	0	0
4.11	0	0	0	0	0	0	0	0	0	0	0	0	0	0	0	0	0	0
4.111	0	0	0	0	0	0	0	0	0	0	0	0	0	0	0	0	0	0
4.112	0	0	0	0	0	0	0	0	0	0	0	0	0	0	0	0	0	0
4.113	0	0	0	0	0	0	0	0	0	0	0	0	0	0	0	0	0	0
4.114	0	0	0	0	0	0	0	0	0	0	0	0	0	0	0	0	0	0
4.115	0	0	0	0	0	0	0	0	0	0	0	0	0	0	0	0	0	0
4.116	0	0	0	0	0	0	0	0	0	0	0	0	0	0	0	0	0	0
4.117	0	0	0	0	0	0	0	0	0	0	0	0	0	0	0	0	0	0
4.118	0	0	0	0	0	0	0	0	0	0	0	0	0	0	0	0	0	0
4.119	0	0	0	0	0	0	0	0	0	0	0	0	0	0	0	0	0	0
4.12	0	0	0	0	0	0	0	0	0	0	0	0	0	0	0	0	0	0
4.121	0	0	0	0	0	0	0	0	0	0	0	0	0	0	0	0	0	0
4.122	0	0	0	0	0	0	0	0	0	0	0	0	0	0	0	0	0	0
4.123	0	0	0	0	0	0	0	0	0	0	0	0	0	0	0	0	0	0
4.124	0	0	0	0	0	0	0	0	0	0	0	0	0	0	0	0	0	0
4.125	0	0	0	0	0	0	0	0	0	0	0	0	0	0	0	0	0	0
4.126	0	0	0	0	0	0	0	0	0	0	0	0	0	0	0	0	0	0
4.127	0	0	0	0	0	0	0	0	0	0	0	0	0	0	0	0	0	0
4.128	0	0	0	0	0	0	0	0	0	0	0	0	0	0	0	0	0	0
4.129	0	0	0	0	0	0	0	0	0	0	0	0	0	0	0	0	0	0
4.13	0	0	0	0	0	0	0	0	0	0	0	0	0	0	0	0	0	0
4.131	0	0	0	0	0	0	0	0	0	0	0	0	0	0	0	0	0	0
4.132	0	0	0	0	0	0	0	0	0	0	0	0	0	0	0	0	0	0
4.133	0	0	0	0	0	0	0	0	0	0	0	0	0	0	0	0	0	0
4.134	0	0	0	0	0	0	0	0	0	0	0	0	0	0	0	0	0	0
4.135	0	0	0	0	0	0	0	0	0	0	0	0	0	0	0	0	0	0
4.136	0	0	0	0	0	0	0	0	0	0	0	0	0	0	0	0	0	0
4.137	0	0	0	0	0	0	0	0	0	0	0	0	0	0	0	0	0	0
4.138	0	0	0	0	0	0	0	0	0	0	0	0	0	0	0	0	0	0
4.139	0	0	0	0	0	0	0	0	0	0	0	0	0	0	0	0	0	0
4.14	0	0	0	0	0	0	0	0	0	0	0	0	0	0	0	0	0	0
4.141	0	0	0	0	0	0	0	0	0	0	0	0	0	0	0	0	0	0
4.142	0	0	0	0	0	0	0	0	0	0	0	0	0	0	0	0	0	0
4.143	0	0	0	0	0	0	0	0	0	0	0	0	0	0	0	0	0	0
4.144	0	0	0	0	0	0	0	0	0	0	0	0	0	0	0	0	0	0
4.145	0	0	0	0	0	0	0	0	0	0	0	0	0	0	0	0	0	0
4.146	0	0	0	0	0	0	0	0	0	0	0	0	0	0	0	0	0	0
4.147	0	0	0	0	0	0	0	0	0	0	0	0	0	0	0	0	0	0
4.148	0	0	0	0	0	0	0	0	0	0	0	0	0	0	0	0	0	0
4.149	0	0	0	0	0	0	0	0	0	0	0	0	0	0	0	0	0	0
4.15	0	0	0	0	0	0	0	0	0	0	0	0	0	0	0	0	0	0
4.151	0	0	0	0	0	0	0	0	0	0	0	0	0	0	0	0	0	0
4.152	0	0	0	0	0	0	0	0	0	0	0	0	0	0	0	0	0	0
4.153	0	0	0	0	0	0	0	0	0	0	0	0	0	0	0	0	0	0
4.154	0	0	0	0	0	0	0	0	0	0	0	0	0	0	0	0	0	0
4.155	0	0	0	0	0	0	0	0	0	0	0	0	0	0	0	0	0	0
4.156	0	0	0	0	0	0	0.650813	10.385622	-0.335566	0	0	0	0	0	0	0	0	0
4.157	0	0	0	0	0	0	0.721854	11.036159	-0.247145	0	0	0	0	0	0	0	0	0
4.158	0	0	0	0	0	0	0.774965	11.77558	-0.227606	0	0	0	0	0	0	0	0	0
4.159	0	0	0	0	0	0	0.809425	12.615953	-0.279712	0	0	0	0	0	0	0	0	0
4.16	0	0	0	0	0	0	0.825358	13.572224	-0.404575	0	0	0	0	0	0	0	0	0
4.161	0	0	0	0	0	0	0.823863	14.662838	-0.601777	0	0	0	0	0	0	0	0	0
4.162	0	0	0	0	0	0	0.807129	15.910373	-0.86953	0	0	0	0	0	0	0	0	0
4.163	0	0	0	0	0	0	0.778504	17.342171	-1.204899	0	0	0	0	0	0	0	0	0
4.164	0	0	0	0	0	0	0.742511	18.990953	-1.604039	0	0	0	0	0	0	0	0	0
4.165	0	0	0	0	0	0	0.704803	20.895407	-2.062464	0	0	0	0	0	0	0	0	0
4.166	0	0	0	0	0	0	0.672062	23.100714	-2.57532	0	0	0	0	0	0	0	0	0
4.167	0	0	0	0	0	0	0.651826	25.658993	-3.137656	0	0	0	0	0	0	0	0	0
4.168	0	0	0	0	0	0	0.65225	28.629683	-3.744683	0	0	0	0	0	0	0	0	0
4.169	0	0	0	0	0	0	0.6818109999999999	32.079773	-4.391996	1.069024	0	-0.322902	0	0	0	-0	1.40827	-0
4.17	0	0	0	0	0	0	0.748951	36.083935	-5.075774	1.073104	0	-0.319817	0	0	0	-0	1.315561	-0
4.171	0	0	0	0	0	0	0.861683	40.724503	-5.792917	1.079378	0	-0.315786	0	0	0	-0	1.23234	-0
4.172	0	0	0	0	0	0	1.027156	46.091244	-6.541139	1.089604	0	-0.309986	0	0	0	-0	1.158817	-0
4.173	0	0	0	0	0	0	1.251195	52.281002	-7.319002	1.108227	0	-0.300355	0	0	0	-0	1.095008	-0
4.174	0	0	0	0	0	0	1.537833	59.397079	-8.125876	1.150568	0	-0.279793	0	0	0	-0	1.040738	-0
4.175	0	0	0	0	0	0	1.888845	67.548439	-8.961857999999999	1.328414	0	-0.196543	0	0	0	-0	0.995644	-0
4.176	0	0	0	0	0	0	2.303293	76.848618	-9.827601	0.526371	0	-0.566959	0	0	0	-0	0.959187	-0
4.177	0	0	0	0	0	0	2.777098	87.414452	-10.724115	0.8990669999999999	0	-0.393581	0	0	0	-0	0.93067	-0
4.178	0	0	0	0	0	0	3.302655	99.36449399999999	-11.652506	0.955983	0	-0.366421	0	0	0	-0	0.909245	-0
4.179	0	0	0	0	0	0	3.86849	112.817215	-12.613672	0.978711	0	-0.355116	0	0	0	-0	0.893937	-0
4.18	0	0	0	0	0	0	4.458991	127.888893	-13.607989	0.990761	0	-0.34878	0	0	0	-0	0.8836580000000001	-0
4.181	0	0	0	0	0	0	5.054208	144.691345	-14.634967	0.9981100000000001	0	-0.344645	0	0	0	-0	0.877227	-0
4.182	0	0	0	0	0	0	5.629753	163.329391	-15.692923	1.002978	0	-0.341679	0	0	0	-0	0.8733880000000001	-0
4.183	0	0	0	0	0	0	6.156794	183.898132	-16.778667	1.006379	0	-0.339413	0	0	0	-0	0.87083	-0
4.184	0	0	0	0	0	0	6.60217	206.480087	-17.88723	1.00884	0	-0.337601	0	0	0	-0	0.868208	-0
4.185	0	0	0	0	0	0	6.928642	231.142288	-19.011644	1.010664	0	-0.336099	0	0	0	-0	0.864157	-0
4.186	0	0	0	0	0	0	7.095276	257.933319	-20.14279	1.012035	0	-0.334823	0	0	0	-0	0.857317	-0
4.187	0	0	0	0	0	0	7.057979	286.880432	-21.269344	1.013073	0	-0.333715	0	0	0	-0	0.846347	-0
4.188	0	0	0	0	0	0	6.770185	317.986694	-22.37781	1.013859	0	-0.332736	0	0	0	-0	0.829944	-0
4.189	0	0	0	0	0	0	6.183702	351.228638	-23.452654	1.014449	0	-0.33186	0	0	0	-0	0.80686	-0
4.19	0	0	0	0	0	0	5.249691	386.553925	-24.47658	1.014882	0	-0.331068	0	0	0	-0	0.7759200000000001	-0
4.191	0	0	0	0	0	0	3.919791	423.879639	-25.430878	1.015189	0	-0.330343	0	0	0	-0	0.736031	-0
4.192	0	0	0	0	0	0	2.147346	463.091003	-26.295916	1.015392	0	-0.329676	0	0	0	-0	0.686205	-0
4.193	0	0	0	0	0	0	-0.11128	504.04071	-27.051714	1.015507	0	-0.329058	0	0	0	-0	0.625564	-0
4.194	0	0	0	0	0	0	-2.895333	546.549011	-27.678614	1.015546	0	-0.328483	0	0	0	-0	0.553357	-0
4.195	0	0	0	0	0	0	-6.238297	590.404358	-28.158012	1.01552	0	-0.327944	0	0	0	-0	0.468966	-0
4.196	0	0	0	0	0	0	-10.166552	635.364929	-28.473146	1.015437	0	-0.327437	0	0	0	-0	0.371918	-0
4.197	0	0	0	0	0	0	-14.698105	681.161011	-28.609905	1.015302	0	-0.32696	0	0	0	-0	0.261892	-0
4.198	0	0	0	0	0	0	-19.841467	727.498108	-28.55764	1.01512	0	-0.326509	0	0	0	-0	0.13872	-0
4.199	0	0	0	0	0	0	-25.594687	774.060669	-28.309944	1.014895	0	-0.326082	0	0	0	-0	0.002399	-0
4.2	0	0	0	0	0	0	-31.944628	820.516846	-27.865387	1.014628	0	-0.325677	0	0	0	0	-0.146914	0
4.201	0	0	0	0	0	0	-38.866505	866.523804	-27.22817	1.014323	0	-0.325292	0	0	0	0	-0.3089	0
4.202	0	0	0	0	0	0	-46.323734	911.733276	-26.408684	1.01398	0	-0.324927	0	0	0	0	-0.483075	0
4.203	0	0	0	0	0	0	-54.268112	955.7981569999999	-25.423931	1.0136	0	-0.32458	0	0	0	0	-0.668799	0
4.204	0	0	0	0	0	0	-62.640377	998.3790279999999	-24.297834	1.013182	0	-0.32425	0	0	0	0	-0.865278	0
4.205	0	0	0	0	0	0	-71.37114	1039.150513	-23.06135	1.012728	0	-0.323936	0	0	0	0	-1.071572	0
4.206	0	0	0	0	0	0	-80.38217899999999	1077.808594	-21.752422	1.012236	0	-0.323638	0	0	0	0	-1.286603	0
4.207	0	0	0	0	0	0	-89.588097	1114.076294	-20.415733	1.011706	0	-0.323356	0	0	0	0	-1.509165	0
4.208	0	0	0	0	0	0	-98.898293	1147.710205	-19.102228	1.011135	0	-0.323089	0	0	0	0	-1.737938	0
4.209	0	0	0	0	0	0	-108.219185	1178.505493	-17.868408	1.010523	0	-0.322836	0	0	0	0	-1.9715	0
4.21	0	0	0	0	0	0	-117.456657	1206.300537	-16.775381	1.009867	0	-0.322598	0	0	0	0	-2.20834	0
4.211	0	0	0	0	0	0	-126.518517	1230.979858	-15.887635	1.009166	0	-0.322375	0	0	0	0	-2.44688	0
4.212	0	0	0	0	0	0	-135.317062	1252.476563	-15.271573	1.008416	0	-0.322166	0	0	0	0	-2.685487	0
4.213	0	0	0	0	0	0	-143.771408	1270.773193	-14.993768	1.007616	0	-0.321971	0	0	0	0	-2.922492	0
4.214	0	0	0	0	0	0	-151.809662	1285.901245	-15.119	1.006762	0	-0.32179	0	0	0	0	-3.156214	0
4.215	0	0	0	0	0	0	-159.370773	1297.938843	-15.708091	1.00585	0	-0.321623	0	0	0	0	-3.384974	0
4.216	0	0	0	0	0	0	-166.405884	1307.008301	-16.815578	1.004879	0	-0.321471	0	0	0	0	-3.607119	0
4.217	0	0	0	0	0	0	-172.879257	1313.271118	-18.487333	1.003843	0	-0.321333	0	0	0	0	-3.821037	0
4.218	0	0	0	0	0	0	-178.768616	1316.923218	-20.758163	1.002738	0	-0.321209	0	0	0	0	-4.025183	0
4.219	0	0	0	0	0	0	-184.065048	1318.188599	-23.64954	1.001562	0	-0.3211	0	0	0	0	-4.218096	0
4.22	0	0	0	0	0	0	-188.772202	1317.313232	-27.167528	1.000309	0	-0.321005	0	0	0	0	-4.398414	0
4.221	0	0	0	0	0	0	-192.905121	1314.558105	-31.301052	0.9989749999999999	0	-0.320924	0	0	0	0	-4.564898	0
